<svg width="512" height="512" viewBox="0 0 512 512" fill="none" xmlns="http://www.w3.org/2000/svg">
  <g fill="#0c2d57">
    <ellipse cx="248" cy="248" rx="168" ry="128" />
    <path d="M384 256c48-10 94 42 103 88 2 12-12 22-30 20-28-3-63-23-80-45-18-21-19-46 7-63z" />
    <path d="M97 264c-34 9-72 39-76 65-3 16 16 21 36 12 24-10 54-42 50-66-1-6-4-10-10-11z" />
    <path d="M329 162c12-44 63-78 96-66 25 9 28 40 8 62-22 24-65 33-92 24-7-2-11-10-12-20z" />
    <path d="M132 144c-17-32-6-70 30-86 24-11 49-5 55 15 6 19-12 48-35 67-22 18-42 23-50 4z" />
    <path d="M132 340c-8 42-41 102-78 112-19 5-30-11-20-29 12-23 53-63 94-83 3-1 5-1 4 0z" />
    <path d="M196 412c6 45 12 80-10 86-21 5-40-27-44-72-3-42 10-74 33-72 17 2 19 23 21 58z" />
  </g>
  <g stroke="#1d4d7e" stroke-width="18" stroke-linecap="round" stroke-linejoin="round">
    <path d="M144 320c24-84 72-184 152-184 92 0 132 104 146 174" />
    <path d="M164 192c32 20 92 28 148 10" />
    <path d="M136 248c44 32 136 40 208 16" />
    <path d="M128 298c42 42 132 54 204 32" />
  </g>
  <circle cx="416" cy="188" r="28" fill="#0c2d57" />
  <circle cx="428" cy="188" r="10" fill="#fff" />
</svg>
